PathFileType  4	(X/Y/Z) C:\Users\Jenny Yong\Documents\NMBL\GaitRetraining\Subject20\WeekOne\
DataRate	CameraRate	NumFrames	NumMarkers	Units	OrigDataRate	OrigDataStartFrame	OrigNumFrames
  200.0		  200.0		    6		     42		 mm	  200.0	      109	    289
Frame#	Time	R.Shoulder			L.Shoulder			R.Clavicle			L.Clavicle			R.Biceps			R.Elbow			R.Forearm			R.Wrist			L.Biceps			L.Elbow			L.Forearm			L.Wrist			R.ASIS			L.ASIS			R.PSIS			S2			L.PSIS			R.TH1			R.TH2			R.TH3			R.Knee			R.SH1			R.SH2			R.SH3			R.SH4			R.Ankle			R.MAnkle			R.Heel			R.MT5			R.Toe			L.TH1			L.TH2			L.TH3			L.TH4			L.Knee			L.SH1			L.SH2			L.SH3			L.Ankle			L.Heel			L.MT5			L.Toe			
		X1	Y1	Z1	X2	Y2	Z2	X3	Y3	Z3	X4	Y4	Z4	X5	Y5	Z5	X6	Y6	Z6	X7	Y7	Z7	X8	Y8	Z8	X9	Y9	Z9	X10	Y10	Z10	X11	Y11	Z11	X12	Y12	Z12	X13	Y13	Z13	X14	Y14	Z14	X15	Y15	Z15	X16	Y16	Z16	X17	Y17	Z17	X18	Y18	Z18	X19	Y19	Z19	X20	Y20	Z20	X21	Y21	Z21	X22	Y22	Z22	X23	Y23	Z23	X24	Y24	Z24	X25	Y25	Z25	X26	Y26	Z26	X27	Y27	Z27	X28	Y28	Z28	X29	Y29	Z29	X30	Y30	Z30	X31	Y31	Z31	X32	Y32	Z32	X33	Y33	Z33	X34	Y34	Z34	X35	Y35	Z35	X36	Y36	Z36	X37	Y37	Z37	X38	Y38	Z38	X39	Y39	Z39	X40	Y40	Z40	X41	Y41	Z41	X42	Y42	Z42	

109	0.54000	1073.718	1372.973	-40.479	993.260	1402.848	-347.042	1088.305	1336.231	-187.635	1079.486	1342.588	-231.450	1008.477	1202.757	30.697	1060.059	1078.035	90.632	1131.497	1107.105	-27.559	1209.667	1171.982	-45.051	844.943	1295.354	-390.385	737.146	1229.355	-398.470	804.218	1152.422	-374.830	943.960	1157.544	-400.551	1042.078	932.530	-89.618	1029.669	974.422	-329.041	872.322	993.271	-150.273	868.443	988.883	-199.003	866.023	1000.861	-245.277	909.656	716.176	-44.978	820.225	758.372	-81.486	761.636	644.426	-101.903	754.258	518.534	-101.045	729.211	436.871	-99.381	663.703	346.609	-85.958	661.604	479.872	-113.396	590.458	381.650	-112.928	546.015	193.366	-128.036	576.252	197.235	-206.650	474.213	219.517	-172.304	561.908	65.312	-124.070	617.431	60.173	-182.729	1064.645	824.188	-372.979	1135.986	715.458	-343.226	971.803	773.757	-382.337	1030.604	657.355	-338.329	1154.479	557.535	-306.071	1180.146	453.145	-280.282	1096.713	487.745	-307.859	1057.362	377.858	-313.806	1029.599	182.673	-273.395	945.425	154.600	-230.007	1114.544	98.574	-267.552	1158.913	121.165	-208.347
110	0.54500	1089.030	1374.212	-40.741	1005.740	1404.257	-346.396	1102.336	1337.580	-187.962	1093.461	1344.170	-231.713	1023.161	1204.012	31.052	1075.487	1079.254	90.069	1141.890	1110.814	-27.353	1223.586	1173.451	-46.514	857.423	1297.991	-389.532	748.599	1233.104	-397.420	815.322	1155.641	-374.927	955.678	1160.601	-401.078	1057.025	933.453	-90.598	1044.297	976.746	-328.706	887.148	995.648	-149.832	884.309	991.023	-198.780	880.550	1003.417	-244.888	922.498	718.062	-45.061	833.416	761.778	-81.676	772.507	648.418	-102.504	765.191	522.056	-101.249	739.477	440.743	-99.314	673.674	350.918	-85.106	671.871	483.969	-113.070	600.585	385.993	-111.838	554.318	197.891	-126.441	585.250	201.581	-204.871	484.572	227.299	-171.058	564.891	69.121	-123.590	621.235	61.731	-181.394	1079.245	825.217	-373.427	1148.485	715.437	-342.533	985.073	775.644	-382.486	1042.332	658.644	-338.295	1165.457	556.512	-306.049	1195.533	453.486	-280.157	1109.786	484.086	-307.348	1075.666	372.422	-312.943	1058.279	175.691	-272.428	975.120	143.354	-229.207	1147.283	95.787	-264.933	1189.562	120.571	-205.396
111	0.55000	1104.184	1375.172	-41.071	1018.814	1404.968	-345.402	1116.187	1338.550	-188.092	1106.833	1345.388	-231.712	1038.458	1206.109	31.342	1090.672	1080.157	89.748	1151.502	1114.632	-26.633	1238.340	1174.533	-47.312	870.015	1300.278	-388.907	760.537	1236.257	-396.724	827.605	1158.174	-375.131	966.926	1162.751	-401.660	1071.799	933.908	-91.158	1058.235	978.264	-328.150	901.912	997.726	-149.290	898.796	993.491	-198.161	895.213	1006.079	-244.351	935.127	719.746	-45.052	847.051	764.012	-82.420	784.620	650.652	-103.071	776.195	525.321	-101.297	750.690	443.802	-99.193	684.296	354.228	-84.980	682.734	487.741	-112.263	611.512	390.168	-110.336	562.695	202.893	-124.578	594.641	206.265	-203.884	495.081	235.179	-169.526	567.799	73.053	-123.114	624.390	63.668	-180.450	1093.527	825.383	-373.655	1160.237	714.450	-341.663	998.849	777.399	-382.577	1053.579	659.423	-338.648	1177.531	555.667	-305.865	1210.400	453.381	-280.154	1125.154	481.182	-307.806	1094.627	366.848	-312.577	1086.634	168.866	-271.373	1004.555	132.959	-228.545	1180.291	94.107	-262.992	1219.851	121.053	-203.272
112	0.55500	1119.129	1375.699	-41.296	1032.949	1405.928	-344.653	1130.174	1339.374	-188.360	1120.590	1346.458	-231.798	1053.074	1207.095	31.860	1105.847	1080.663	89.618	1160.304	1118.561	-25.368	1251.908	1174.902	-48.722	882.332	1302.161	-388.127	772.621	1238.990	-396.131	838.916	1160.934	-375.577	979.527	1164.980	-402.364	1086.387	934.329	-91.699	1073.039	979.656	-327.458	916.700	999.244	-148.780	913.911	995.678	-197.977	910.271	1008.176	-243.901	948.504	721.154	-45.104	860.028	765.583	-82.165	798.087	654.245	-103.317	788.369	528.324	-100.821	762.690	446.417	-99.181	695.497	357.860	-83.944	694.515	491.037	-111.475	622.286	393.964	-108.776	570.488	208.736	-122.496	603.705	209.913	-202.253	505.869	243.459	-168.346	571.076	77.110	-122.802	627.241	65.266	-179.602	1107.619	824.798	-373.884	1172.482	712.966	-340.913	1012.165	778.728	-382.699	1065.280	659.552	-339.788	1188.793	553.660	-305.973	1224.864	452.771	-280.105	1137.001	475.540	-307.180	1113.707	361.102	-312.651	1116.269	163.311	-270.969	1034.063	122.871	-227.721	1211.229	91.642	-260.452	1249.678	122.158	-201.549
113	0.56000	1133.922	1375.874	-41.510	1045.367	1406.242	-344.123	1144.163	1339.773	-188.588	1133.690	1347.108	-231.916	1068.899	1207.757	32.230	1120.763	1081.004	89.495	1168.269	1122.604	-23.529	1265.928	1175.026	-49.687	895.823	1303.838	-387.875	785.183	1241.148	-395.976	851.151	1162.924	-376.561	991.146	1166.539	-403.235	1100.807	934.510	-92.182	1086.456	980.188	-326.573	931.545	1001.000	-148.790	929.028	997.287	-197.963	924.556	1010.372	-243.377	962.093	722.136	-45.137	873.996	768.716	-82.427	810.828	655.560	-103.698	800.967	530.491	-100.666	774.897	448.370	-99.094	707.771	360.837	-82.285	707.035	494.171	-110.226	634.126	397.404	-106.974	579.727	213.590	-121.012	612.563	213.828	-201.250	517.474	250.780	-167.321	573.945	81.547	-122.404	630.059	67.708	-178.377	1121.976	823.897	-373.645	1184.811	710.884	-340.076	1025.896	779.844	-382.808	1076.434	659.528	-341.042	1200.156	551.125	-306.207	1238.909	451.326	-280.171	1151.542	469.901	-308.823	1132.286	355.270	-312.915	1142.712	156.329	-269.946	1063.136	114.682	-227.833	1243.331	91.696	-258.864	1278.606	123.670	-199.549
114	0.56500	1148.839	1375.840	-41.597	1058.907	1406.480	-343.508	1157.570	1339.712	-188.872	1147.858	1347.512	-232.015	1082.690	1208.385	32.907	1135.458	1081.043	89.476	1175.369	1126.761	-21.087	1280.556	1174.996	-50.161	908.659	1305.127	-387.463	797.853	1243.025	-396.113	863.321	1164.707	-377.775	1004.024	1167.750	-404.256	1115.142	934.531	-92.353	1101.073	980.296	-325.863	945.921	1002.326	-148.391	943.471	999.136	-197.470	939.127	1012.115	-243.120	976.618	722.969	-45.131	888.072	770.539	-82.901	824.663	658.073	-104.208	814.014	531.773	-100.747	787.982	449.746	-99.027	719.766	363.222	-81.381	720.223	496.346	-109.076	646.264	400.690	-105.198	588.121	217.896	-119.909	620.909	217.284	-200.071	527.283	259.291	-165.646	577.315	86.682	-121.910	633.149	70.849	-177.600	1136.774	822.515	-373.167	1196.512	707.938	-339.770	1039.357	780.134	-382.901	1087.525	658.706	-342.313	1211.639	548.325	-306.537	1252.842	449.915	-279.928	1164.579	466.969	-310.725	1150.539	349.178	-313.234	1170.578	150.885	-269.371	1091.417	105.234	-227.272	1274.411	91.905	-257.613	1307.222	125.636	-198.240
